<svg width="800" viewBox="0 0 680 420" xmlns="http://www.w3.org/2000/svg" font-family="ui-sans-serif, system-ui, sans-serif">
<defs>
<marker id="arrow" viewBox="0 0 10 10" refX="8" refY="5" markerWidth="6" markerHeight="6" orient="auto-start-reverse">
<path d="M2 1L8 5L2 9" fill="none" stroke="#888780" stroke-width="1.5" stroke-linecap="round" stroke-linejoin="round"/>
</marker>
</defs>

<rect x="24" y="24" width="632" height="372" rx="16" fill="#F1EFE8" stroke="#5F5E5A" stroke-width="0.5"/>
<text font-size="14" font-weight="500" fill="#444441" x="44" y="52">OpenSUSE Tumbleweed</text>
<text font-size="12" fill="#5F5E5A" x="44" y="70">KVM / Libvirt hypervisor</text>

<rect x="44" y="88" width="592" height="288" rx="10" fill="none" stroke="#888780" stroke-width="0.5" stroke-dasharray="6 4"/>
<text font-size="12" fill="#5F5E5A" x="56" y="106">Vagrant (vagrant-libvirt)</text>

<rect x="230" y="118" width="220" height="56" rx="8" fill="#EEEDFE" stroke="#534AB7" stroke-width="0.5"/>
<text font-size="14" font-weight="500" fill="#3C3489" x="340" y="140" text-anchor="middle" dominant-baseline="central">control-plane-01</text>
<text font-size="12" fill="#534AB7" x="340" y="158" text-anchor="middle" dominant-baseline="central">kubeadm · API server · etcd</text>

<line x1="340" y1="174" x2="340" y2="208" stroke="#888780" stroke-width="0.5"/>
<line x1="112" y1="208" x2="568" y2="208" stroke="#888780" stroke-width="0.5"/>
<line x1="112" y1="208" x2="112" y2="256" stroke="#888780" stroke-width="0.5" marker-end="url(#arrow)"/>
<line x1="226" y1="208" x2="226" y2="256" stroke="#888780" stroke-width="0.5" marker-end="url(#arrow)"/>
<line x1="340" y1="208" x2="340" y2="256" stroke="#888780" stroke-width="0.5" marker-end="url(#arrow)"/>
<line x1="454" y1="208" x2="454" y2="256" stroke="#888780" stroke-width="0.5" marker-end="url(#arrow)"/>
<line x1="568" y1="208" x2="568" y2="256" stroke="#888780" stroke-width="0.5" marker-end="url(#arrow)"/>

<rect x="62"  y="256" width="100" height="44" rx="6" fill="#E1F5EE" stroke="#0F6E56" stroke-width="0.5"/>
<text font-size="14" font-weight="500" fill="#085041" x="112" y="272" text-anchor="middle" dominant-baseline="central">worker-01</text>
<text font-size="12" fill="#0F6E56" x="112" y="288" text-anchor="middle" dominant-baseline="central">Ubuntu 22.04</text>

<rect x="176" y="256" width="100" height="44" rx="6" fill="#E1F5EE" stroke="#0F6E56" stroke-width="0.5"/>
<text font-size="14" font-weight="500" fill="#085041" x="226" y="272" text-anchor="middle" dominant-baseline="central">worker-02</text>
<text font-size="12" fill="#0F6E56" x="226" y="288" text-anchor="middle" dominant-baseline="central">Ubuntu 22.04</text>

<rect x="290" y="256" width="100" height="44" rx="6" fill="#E1F5EE" stroke="#0F6E56" stroke-width="0.5"/>
<text font-size="14" font-weight="500" fill="#085041" x="340" y="272" text-anchor="middle" dominant-baseline="central">worker-03</text>
<text font-size="12" fill="#0F6E56" x="340" y="288" text-anchor="middle" dominant-baseline="central">Ubuntu 22.04</text>

<rect x="404" y="256" width="100" height="44" rx="6" fill="#E1F5EE" stroke="#0F6E56" stroke-width="0.5"/>
<text font-size="14" font-weight="500" fill="#085041" x="454" y="272" text-anchor="middle" dominant-baseline="central">worker-04</text>
<text font-size="12" fill="#0F6E56" x="454" y="288" text-anchor="middle" dominant-baseline="central">Ubuntu 22.04</text>

<rect x="518" y="256" width="100" height="44" rx="6" fill="#E1F5EE" stroke="#0F6E56" stroke-width="0.5"/>
<text font-size="14" font-weight="500" fill="#085041" x="568" y="272" text-anchor="middle" dominant-baseline="central">worker-05</text>
<text font-size="12" fill="#0F6E56" x="568" y="288" text-anchor="middle" dominant-baseline="central">Ubuntu 22.04</text>

<rect x="62" y="332" width="556" height="32" rx="6" fill="none" stroke="#888780" stroke-width="0.5" opacity="0.5"/>
<text font-size="12" fill="#5F5E5A" x="340" y="352" text-anchor="middle" dominant-baseline="central">Flannel CNI · pod network · containerd runtime · kubeadm-joined</text>
</svg>
